# xmcd
#
# Track frame offsets:
#	150
#	12332
#	25538
#	39951
#	51829
#	66362
#	78879
#	91210
#	105709
#	117746
#	131505
#	143175
#	156558
#	167270
#	181554
#	195742
#
# Disc length: 2766 seconds
#
# Revision: 3
# Processed by: cddbd v1.5.1PL2 Copyright (c) Steve Scherf et al.
# Submitted via: EasyCDDAExtractor 9.0.0.1
#
DISCID=ca0acc10
DTITLE=Dolly Parton - Jolene
DYEAR=1974
DGENRE=Country
TTITLE0=Jolene
TTITLE1=I Will Always Love You
TTITLE2=Loneley Comin Down
TTITLE3=Its My Time
TTITLE4=Harper Valley Pta
TTITLE5=Mama Say A Prayer
TTITLE6=D-i-v-o-r-c-e
TTITLE7=We Used To
TTITLE8=Bobbys Arms
TTITLE9=The Seeker
TTITLE10=Hold Me
TTITLE11=Here You Come Again
TTITLE12=Lovin You
TTITLE13=Sweet Music Man
TTITLE14=I Really Got The Feeling
TTITLE15=Baby Im Burning
EXTD=
EXTT0=
EXTT1=
EXTT2=
EXTT3=
EXTT4=
EXTT5=
EXTT6=
EXTT7=
EXTT8=
EXTT9=
EXTT10=
EXTT11=
EXTT12=
EXTT13=
EXTT14=
EXTT15=
PLAYORDER=
